<svg width="17" height="17" viewBox="0 0 17 17" fill="none" xmlns="http://www.w3.org/2000/svg">
<path fill-rule="evenodd" clip-rule="evenodd" d="M1.83331 5.83333C1.83331 3.99238 3.3257 2.5 5.16665 2.5H11.8333C13.6743 2.5 15.1666 3.99238 15.1666 5.83333V11.8333C15.1666 13.6743 13.6743 15.1667 11.8333 15.1667H5.16665C3.3257 15.1667 1.83331 13.6743 1.83331 11.8333V5.83333ZM5.16665 3.83333C4.06208 3.83333 3.16665 4.72876 3.16665 5.83333V11.8333C3.16665 12.9379 4.06208 13.8333 5.16665 13.8333H11.8333C12.9379 13.8333 13.8333 12.9379 13.8333 11.8333V5.83333C13.8333 4.72876 12.9379 3.83333 11.8333 3.83333H5.16665Z" fill="white"/>
<path fill-rule="evenodd" clip-rule="evenodd" d="M5.83335 1.83325C6.20154 1.83325 6.50002 2.13173 6.50002 2.49992V4.49992C6.50002 4.86811 6.20154 5.16658 5.83335 5.16658C5.46516 5.16658 5.16669 4.86811 5.16669 4.49992V2.49992C5.16669 2.13173 5.46516 1.83325 5.83335 1.83325Z" fill="white"/>
<path fill-rule="evenodd" clip-rule="evenodd" d="M4.5 7.16667C4.5 6.79848 4.79848 6.5 5.16667 6.5H11.8333C12.2015 6.5 12.5 6.79848 12.5 7.16667C12.5 7.53486 12.2015 7.83333 11.8333 7.83333H5.16667C4.79848 7.83333 4.5 7.53486 4.5 7.16667Z" fill="white"/>
<path fill-rule="evenodd" clip-rule="evenodd" d="M10.5 11.8334C10.5 11.4652 10.7985 11.1667 11.1667 11.1667L11.8333 11.1667C12.2015 11.1667 12.5 11.4652 12.5 11.8334C12.5 12.2016 12.2015 12.5001 11.8333 12.5001H11.1667C10.7985 12.5001 10.5 12.2016 10.5 11.8334Z" fill="white"/>
<path fill-rule="evenodd" clip-rule="evenodd" d="M11.1667 1.83325C11.5349 1.83325 11.8333 2.13173 11.8333 2.49992V4.49992C11.8333 4.86811 11.5349 5.16658 11.1667 5.16658C10.7985 5.16658 10.5 4.86811 10.5 4.49992V2.49992C10.5 2.13173 10.7985 1.83325 11.1667 1.83325Z" fill="white"/>
</svg>
