<svg width="19" height="19" viewBox="0 0 19 19" fill="none" xmlns="http://www.w3.org/2000/svg">
<path fill-rule="evenodd" clip-rule="evenodd" d="M9.49999 3.16659C8.25352 3.16659 7.04947 3.6871 6.15522 4.6278C5.25968 5.56987 4.74999 6.85576 4.74999 8.20446C4.74999 10.1681 5.96624 12.0848 7.31743 13.5852C7.97911 14.3199 8.64319 14.9217 9.14247 15.3399C9.27468 15.4507 9.39492 15.5482 9.49999 15.6316C9.60506 15.5482 9.7253 15.4507 9.85751 15.3399C10.3568 14.9217 11.0209 14.3199 11.6826 13.5852C13.0337 12.0848 14.25 10.1681 14.25 8.20446C14.25 6.85576 13.7403 5.56987 12.8448 4.6278C11.9505 3.6871 10.7465 3.16659 9.49999 3.16659ZM9.49999 16.6249C9.04543 17.2731 9.04524 17.2729 9.04502 17.2728L9.04303 17.2714L9.03861 17.2683L9.02386 17.2578C9.01144 17.2489 8.99389 17.2363 8.97157 17.22C8.92694 17.1875 8.86316 17.1404 8.78295 17.0794C8.62262 16.9576 8.39622 16.7803 8.12574 16.5537C7.58596 16.1016 6.86462 15.4484 6.14089 14.6448C4.72124 13.0684 3.16666 10.7749 3.16666 8.20446C3.16666 6.46098 3.82467 4.78134 5.00766 3.53691C6.19194 2.29111 7.80698 1.58325 9.49999 1.58325C11.193 1.58325 12.808 2.29111 13.9923 3.53691C15.1753 4.78134 15.8333 6.46098 15.8333 8.20446C15.8333 10.7749 14.2787 13.0684 12.8591 14.6448C12.1354 15.4484 11.414 16.1016 10.8742 16.5537C10.6038 16.7803 10.3774 16.9576 10.217 17.0794C10.1368 17.1404 10.073 17.1875 10.0284 17.22C10.0061 17.2363 9.98854 17.2489 9.97612 17.2578L9.96137 17.2683L9.95695 17.2714L9.95549 17.2724C9.95528 17.2726 9.95455 17.2731 9.49999 16.6249ZM9.49999 16.6249L9.95455 17.2731C9.68171 17.4644 9.31786 17.4641 9.04502 17.2728L9.49999 16.6249Z" fill="#F24C4C"/>
<path fill-rule="evenodd" clip-rule="evenodd" d="M9.49998 6.33333C8.62553 6.33333 7.91665 7.04222 7.91665 7.91667C7.91665 8.79112 8.62553 9.5 9.49998 9.5C10.3744 9.5 11.0833 8.79112 11.0833 7.91667C11.0833 7.04222 10.3744 6.33333 9.49998 6.33333ZM6.33331 7.91667C6.33331 6.16776 7.75108 4.75 9.49998 4.75C11.2489 4.75 12.6666 6.16776 12.6666 7.91667C12.6666 9.66557 11.2489 11.0833 9.49998 11.0833C7.75108 11.0833 6.33331 9.66557 6.33331 7.91667Z" fill="#F24C4C"/>
</svg>
