<svg width="15" height="14" viewBox="0 0 15 14" fill="transparent" xmlns="http://www.w3.org/2000/svg">
<g clip-path="url(#clip0_747_2172)">
<path d="M10 10.5V12.5C10 12.7652 9.89464 13.0196 9.70711 13.2071C9.51957 13.3946 9.26522 13.5 9 13.5H2C1.73478 13.5 1.48043 13.3946 1.29289 13.2071C1.10536 13.0196 1 12.7652 1 12.5V1.5C1 1.23478 1.10536 0.98043 1.29289 0.792893C1.48043 0.605357 1.73478 0.5 2 0.5H9C9.26522 0.5 9.51957 0.605357 9.70711 0.792893C9.89464 0.98043 10 1.23478 10 1.5V3.5" stroke="#FF8A1F" stroke-linecap="round" stroke-linejoin="round"/>
<path d="M7 7H14" stroke="#000" stroke-linecap="round" stroke-linejoin="round"/>
<path d="M12 5L14 7L12 9" stroke="#000" stroke-linecap="round" stroke-linejoin="round"/>
</g>
<defs>
<clipPath id="clip0_747_2172">
<rect width="14" height="14" fill="#000" transform="translate(0.5)"/>
</clipPath>
</defs>
</svg>
