<svg width="24" height="24" viewBox="0 0 24 24" fill="none" xmlns="http://www.w3.org/2000/svg">
<path d="M3.75 6.47095C4.16421 6.47095 4.5 6.13516 4.5 5.72095C4.5 5.30674 4.16421 4.97095 3.75 4.97095C3.33579 4.97095 3 5.30674 3 5.72095C3 6.13516 3.33579 6.47095 3.75 6.47095Z" stroke="white" stroke-width="1.5" stroke-linecap="round" stroke-linejoin="round"/>
<path d="M8.5 5.72095H20.5" stroke="white" stroke-width="2" stroke-linecap="round" stroke-linejoin="round"/>
<path d="M3.75 12.75C4.16421 12.75 4.5 12.4142 4.5 12C4.5 11.5858 4.16421 11.25 3.75 11.25C3.33579 11.25 3 11.5858 3 12C3 12.4142 3.33579 12.75 3.75 12.75Z" stroke="white" stroke-width="1.5" stroke-linecap="round" stroke-linejoin="round"/>
<path d="M8.5 12H20.5" stroke="white" stroke-width="2" stroke-linecap="round" stroke-linejoin="round"/>
<path d="M3.75 19.0291C4.16421 19.0291 4.5 18.6932 4.5 18.2791C4.5 17.8649 4.16421 17.5291 3.75 17.5291C3.33579 17.5291 3 17.8649 3 18.2791C3 18.6932 3.33579 19.0291 3.75 19.0291Z" stroke="white" stroke-width="1.5" stroke-linecap="round" stroke-linejoin="round"/>
<path d="M8.5 18.2791H20.5" stroke="white" stroke-width="2" stroke-linecap="round" stroke-linejoin="round"/>
</svg>
