<svg width="18" height="19" viewBox="0 0 18 19" fill="none" xmlns="http://www.w3.org/2000/svg">
<g clip-path="url(#clip0_517_1656)">
<g clip-path="url(#clip1_517_1656)">
<path fill-rule="evenodd" clip-rule="evenodd" d="M7.70716 10.7929C8.09768 11.1834 8.09768 11.8166 7.70716 12.2071L3.41423 16.5H6.14293C6.69521 16.5 7.14293 16.9478 7.14293 17.5C7.14293 18.0523 6.69521 18.5 6.14293 18.5H1.00002C0.447738 18.5 2.28882e-05 18.0523 2.28882e-05 17.5V12.3571C2.28882e-05 11.8049 0.447738 11.3571 1.00002 11.3571C1.55231 11.3571 2.00002 11.8049 2.00002 12.3571V15.0858L6.29295 10.7929C6.68347 10.4024 7.31664 10.4024 7.70716 10.7929Z" fill="white"/>
<path fill-rule="evenodd" clip-rule="evenodd" d="M11 1.5C11 0.947715 11.4477 0.5 12 0.5H17C17.5522 0.5 18 0.947715 18 1.5V6.5C18 7.05228 17.5522 7.5 17 7.5C16.4477 7.5 16 7.05228 16 6.5V3.91423L11.7071 8.20711C11.3166 8.59764 10.6834 8.59764 10.2929 8.20712C9.90237 7.81659 9.90237 7.18343 10.2929 6.7929L14.5858 2.5H12C11.4477 2.5 11 2.05228 11 1.5Z" fill="white"/>
</g>
</g>
<defs>
<clipPath id="clip0_517_1656">
<rect width="18" height="19" fill="white"/>
</clipPath>
<clipPath id="clip1_517_1656">
<rect width="18" height="19" fill="white"/>
</clipPath>
</defs>
</svg>
